<svg xmlns="http://www.w3.org/2000/svg" viewBox="0 0 512.001 512.001" width="512" height="512"><path d="M500.033 264.883c-3.503-7.098-78.448-130.636-80.347-133.721-13.99-22.704-38.24-36.258-64.869-36.258-3.799 0-7.53.288-11.182.828a.197.197 0 0 0-.016-.026c-6.453-10.457-17.622-16.701-29.876-16.701-19.348 0-35.09 15.741-35.09 35.09v61.312h-45.306v-61.312c0-19.348-15.741-35.09-35.09-35.09-12.232 0-23.38 6.221-29.89 16.727a76.387 76.387 0 0 0-11.184-.828c-26.629 0-50.879 13.555-64.87 36.26-.193.313-.78 1.267-14.882 24.908a8.57 8.57 0 0 0 14.717 8.779c11.604-19.452 14.43-24.168 14.757-24.699 10.846-17.602 29.642-28.111 50.279-28.111 32.548 0 59.026 26.479 59.026 59.026V255.511c-20.53-33.481-57.467-55.864-99.536-55.864-18.999 0-36.95 4.568-52.817 12.657 4.075-6.837 8.38-14.06 12.7-21.304a8.569 8.569 0 0 0-14.72-8.776c-18.206 30.534-46.861 76.35-50.481 83.914C4.08 281.345 0 298.365 0 316.322c0 64.334 52.34 116.674 116.674 116.674s116.673-52.34 116.673-116.674v-22.767h45.306v22.767c0 64.334 52.34 116.674 116.673 116.674 64.334 0 116.674-52.34 116.674-116.674.001-18.452-4.306-35.914-11.967-51.439zM216.21 123c-7.916-9.703-18.17-17.421-29.897-22.294a17.814 17.814 0 0 1 11.945-4.564c9.899 0 17.952 8.053 17.952 17.952V123zm-99.536 292.857c-54.885 0-99.537-44.651-99.537-99.536s44.652-99.537 99.537-99.537c54.885 0 99.536 44.652 99.536 99.537s-44.652 99.536-99.536 99.536zm116.672-172.341v-50.973h45.306v50.973h-45.306zm45.307 32.902h-45.306v-15.764h45.306v15.764zm17.137-162.323c0-9.899 8.053-17.952 17.952-17.952 4.509 0 8.729 1.665 11.956 4.56-11.731 4.873-21.99 12.593-29.908 22.298v-8.906zm0 56.977v-.005c0-32.548 26.479-59.026 59.026-59.026 20.638 0 39.433 10.51 50.279 28.111 1.028 1.669 22.444 37.584 43.048 72.152-15.868-8.09-33.819-12.658-52.818-12.658-42.069 0-79.006 22.384-99.536 55.864v-84.438zm99.537 244.785c-54.885 0-99.536-44.652-99.536-99.537s44.652-99.537 99.536-99.537c54.885 0 99.537 44.652 99.537 99.537s-44.653 99.537-99.537 99.537z" fill="#FFF"/><path d="M470.448 289.32a8.57 8.57 0 0 0-16.126 5.798 62.505 62.505 0 0 1 3.675 21.203c0 34.557-28.113 62.671-62.671 62.671-34.557 0-62.671-28.114-62.671-62.671s28.114-62.671 62.671-62.671c17.343 0 34.069 7.286 45.891 19.989a8.57 8.57 0 0 0 12.546-11.676c-15.051-16.174-36.351-25.451-58.437-25.451-44.007 0-79.808 35.801-79.808 79.808s35.801 79.808 79.808 79.808 79.808-35.801 79.808-79.808a79.542 79.542 0 0 0-4.686-27zM116.674 236.514c-44.007 0-79.808 35.801-79.808 79.808s35.801 79.808 79.808 79.808c44.007 0 79.808-35.801 79.808-79.808s-35.802-79.808-79.808-79.808zm0 142.478c-34.557 0-62.671-28.113-62.671-62.671 0-34.557 28.113-62.671 62.671-62.671s62.671 28.113 62.671 62.671-28.115 62.671-62.671 62.671z" fill="#FFF"/></svg>