<svg xmlns="http://www.w3.org/2000/svg" viewBox="0 0 370.808 370.808" width="512" height="512"><g fill="#FFF"><path d="M322 259.004c-.064.111-.127.231-.191.343.186-.108.191-.343.191-.343zM317.56 267.155l-.096.174a.542.542 0 0 0 .096-.174z"/><path d="M360 329.804c-12.8 0-24-5.2-32.4-13.2-8.4-8.4-13.2-19.6-13.2-32.4 0-4.8.8-9.6 2-14 .338-1.015.676-2.014 1.015-2.787l.049-.089-.02.024c.052-.117.104-.244.156-.348 0 .063-.023.104-.04.151 1.416-2.528 2.833-5.302 4.249-7.807a.392.392 0 0 1-.209.057c.4-.4.8-1.2 1.2-1.6h-.4s0 .4-.4.4c10.4-22 16.4-46.8 16.4-72.8 0-93.2-75.6-169.2-169.2-169.2C76 16.204 0 91.804 0 185.404c0 93.2 75.6 169.2 169.2 169.2 48.626 0 92.483-20.656 123.267-53.254-.261.285-.467.569-.467.854 3.2 12.4 9.6 23.2 18.4 32 12.8 12.8 30.4 20.4 49.6 20.4 13.6-.4 15.2-23.6 0-24.8zm-108-226c14-8 31.6-3.2 39.6 10.4 8 14 3.2 31.6-10.4 39.6-13.6 8-31.6 3.6-39.6-10.4-8-13.6-3.6-31.6 10.4-39.6zm-82.4-59.6c16 0 28.8 12.8 28.8 28.8s-12.8 28.8-28.8 28.8-28.8-12.8-28.8-28.8c-.4-16 12.8-28.8 28.8-28.8zm-82.4 222c-14 8-31.6 3.2-39.6-10.4-8-14-3.2-31.6 10.4-39.6 14-8 31.6-3.2 39.6 10.4 8 13.6 3.2 31.6-10.4 39.6zm10.4-122.8c-8 14-25.6 18.4-39.6 10.4s-18.4-25.6-10.4-39.6 25.6-18.4 39.6-10.4c13.6 8 18.4 26 10.4 39.6zm72 182.4c-16 0-28.8-12.8-28.8-28.8s12.8-28.8 28.8-28.8 28.8 12.8 28.8 28.8-12.8 28.8-28.8 28.8zm0-82.8c-32 0-58-26-58-58s26-58 58-58 58 26 58 58-26 58-58 58zm122 12.8c-8 13.6-25.6 18.4-39.6 10.4s-18.4-25.6-10.4-39.6 25.6-18.4 39.6-10.4 18.4 25.6 10.4 39.6zm20 21.2c0-.4.4-1.2 1.2-2-.4.8-.8 1.2-1.2 2z"/></g></svg>